<?xml version="1.0" encoding="UTF-8" standalone="no"?><!DOCTYPE svg PUBLIC "-//W3C//DTD SVG 1.1//EN" "http://www.w3.org/Graphics/SVG/1.1/DTD/svg11.dtd"><svg width="100%" height="100%" viewBox="0 0 182 181" version="1.1" xmlns="http://www.w3.org/2000/svg" xmlns:xlink="http://www.w3.org/1999/xlink" xml:space="preserve" xmlns:serif="http://www.serif.com/" style="fill-rule:evenodd;clip-rule:evenodd;stroke-linejoin:round;stroke-miterlimit:2;"><path d="M155.68,40.688c1.7,-1.52 4.638,-2.034 6.305,-0.378c0.775,0.771 1.088,1.891 0.882,3.15c-0.251,1.535 -1.242,2.935 -2.524,3.566c-2.603,1.281 -5.581,0.259 -7.518,-1.113c0.507,-1.851 1.321,-3.853 2.855,-5.225m25.927,42.941c-3.244,-2.708 -6.943,-4.951 -10.569,-7.151c-1.253,-0.76 -2.553,-1.549 -3.799,-2.337c-9.553,-6.039 -14.569,-12.337 -15.34,-19.247c-0.248,-2.232 -0.058,-4.656 0.594,-7.62c0.015,-0.079 0.033,-0.158 0.051,-0.237c2.69,1.764 5.851,2.153 8.275,0.961c1.609,-0.796 2.805,-2.467 3.114,-4.365c0.26,-1.588 -0.172,-3.079 -1.188,-4.091c-2.099,-2.081 -5.718,-1.504 -7.785,0.339c-1.606,1.437 -2.492,3.425 -3.05,5.304c-4.761,-4.217 -5.419,-11.486 -5.113,-16.935c0.129,-2.33 0.615,-6.518 2.358,-10.266c-0.281,-0.241 -0.565,-0.483 -0.85,-0.717c-1.919,3.98 -2.448,8.451 -2.585,10.922c-0.332,5.841 0.428,13.705 5.88,18.148c-0.058,0.242 -0.111,0.476 -0.162,0.703c-0.68,3.086 -0.875,5.618 -0.612,7.972c0.807,7.26 5.985,13.814 15.833,20.04c1.257,0.796 2.561,1.588 3.821,2.352c3.867,2.347 7.821,4.746 11.181,7.695c-0.014,-0.49 -0.029,-0.98 -0.054,-1.47" style="fill:#472444;fill-rule:nonzero;"/><path d="M5.628,103.6c-1.905,2.787 -3.731,5.64 -5.243,8.531c-0.133,-0.522 -0.263,-1.045 -0.385,-1.566c1.411,-2.568 3.043,-5.096 4.738,-7.573c5.456,-7.976 11.642,-17.015 10.227,-26.759c-0.641,-4.415 -3.324,-8.725 -7.18,-11.527c-1.97,-1.433 -4.105,-2.391 -6.277,-2.841c0.101,-0.346 0.205,-0.692 0.314,-1.037c2.286,0.486 4.53,1.501 6.597,3.003c4.087,2.971 6.935,7.551 7.616,12.248c1.476,10.161 -5.114,19.787 -10.407,27.521" style="fill:#472444;fill-rule:nonzero;"/><path d="M39.318,165.386c-0.468,-0.303 -0.936,-0.609 -1.397,-0.919c-0.281,-0.965 -0.54,-1.915 -0.782,-2.845c-0.327,-1.257 -0.644,-2.524 -0.961,-3.792c-2.013,-8.048 -4.09,-16.366 -9.197,-22.833c-3.352,-4.242 -9.265,-7.84 -14.335,-5.704c-1.495,0.63 -2.741,1.667 -4.058,2.766c-0.105,0.086 -0.209,0.176 -0.317,0.263c-0.181,-0.325 -0.35,-0.649 -0.519,-0.973c0.047,-0.039 0.097,-0.079 0.144,-0.118c1.321,-1.103 2.686,-2.241 4.332,-2.935c5.617,-2.366 11.883,1.324 15.603,6.031c5.247,6.648 7.357,15.084 9.395,23.241c0.317,1.267 0.63,2.528 0.958,3.781c0.342,1.308 0.713,2.661 1.134,4.037" style="fill:#472444;fill-rule:nonzero;"/><path d="M117.762,0.339c-2.502,3.78 -5.992,6.892 -10.093,8.901c-6.039,2.967 -13.158,3.428 -19.532,1.272c-2.398,-0.811 -4.75,-1.995 -7.025,-3.141c-4.775,-2.398 -9.284,-4.663 -14.188,-3.82c-2.809,0.482 -5.618,2.013 -8.837,4.817c-3.543,3.09 -6.594,6.688 -9.06,10.689c-0.472,0.762 -0.936,1.566 -1.39,2.34c-2.171,3.731 -4.422,7.591 -8.3,9.561c-2.139,1.087 -4.516,1.422 -6.723,1.422c-1.643,-0 -3.191,-0.184 -4.476,-0.382c-3.364,-0.511 -6.644,-1.34 -9.82,-2.47c0.237,-0.298 0.479,-0.594 0.724,-0.889c2.999,1.044 6.093,1.811 9.258,2.294c2.873,0.435 7.097,0.817 10.547,-0.937c3.597,-1.829 5.762,-5.546 7.857,-9.142c0.454,-0.782 0.926,-1.588 1.401,-2.363c2.524,-4.094 5.646,-7.774 9.273,-10.936c3.374,-2.942 6.348,-4.552 9.362,-5.07c5.254,-0.901 10.137,1.552 14.854,3.921c2.244,1.127 4.563,2.294 6.889,3.082c6.107,2.068 12.924,1.624 18.711,-1.216c3.831,-1.884 7.111,-4.764 9.495,-8.272c0.36,0.111 0.717,0.224 1.073,0.339" style="fill:#472444;fill-rule:nonzero;"/><path d="M173.451,126.416c-0.274,0.583 -0.306,0.673 -0.641,1.458c-0.004,0.004 -0.004,0.011 -0.007,0.015c-1.509,3.122 -3.187,6.135 -5.027,9.038c-2.528,3.986 -8.297,4.008 -11.379,7.541c-2.679,3.067 -2.723,9.556 -5.657,12.376c-0.058,0.057 -0.116,0.111 -0.173,0.162c-3.792,3.335 -7.844,6.363 -12.111,9.049c-2.761,1.739 -9.063,5.042 -9.322,5.168c-0.35,0.165 -11.487,4.825 -16.968,6.261c-7.832,2.061 -15.974,3.101 -24.231,2.986c-2.261,-0.03 -4.349,-10.913 -6.623,-11.118c-1.923,-0.173 -4.03,10.357 -5.955,10.055c-0.061,-0.011 -0.119,-0.017 -0.18,-0.028c-0.429,-0.068 -0.861,-0.141 -1.289,-0.216c-3.032,-0.53 -6.061,-1.218 -9.082,-2.078l-12.589,-33.608l-16.391,-43.745l-0.962,-2.582l-0.573,-1.515l-2.315,-6.191l-1.369,-3.655l-0.399,-1.061l-4.011,-10.707l-4.667,-12.452l-0.609,-1.634l-0.004,-0.007l-0.418,-1.124l-1.814,-4.84c-0.796,-2.132 0.284,-4.505 2.412,-5.301l1.073,-0.403l24.815,-9.297l1.483,-0.555l11.055,-4.141l29.708,-11.13l0.008,0l31.879,-11.946l4.105,-1.533c2.128,-0.8 4.498,0.28 5.297,2.408l2.056,5.493l18.041,48.163l0.411,1.097l22.423,59.597Z" style="fill:#472444;fill-rule:nonzero;"/><path d="M167.776,136.927c-4.764,7.512 -10.587,14.264 -17.209,20.079l-62.632,23.464c-4.173,-0.054 -8.375,-0.403 -12.578,-1.063c-0.061,-0.01 -0.119,-0.017 -0.18,-0.028l-17.544,-46.838l0.004,-0l-10.069,-26.867l-0.475,-1.278l-2.719,-7.252l-3.853,-10.288l-0.288,-0.756l-0.417,-1.124l-6.691,-17.861l-3.551,-9.47l-0.4,-1.08l-1.847,-4.927l15.611,-5.848l0.003,-0l1.945,-0.727l9.211,-3.453l44.396,-16.633l0.004,-0l23.975,-8.982l45.304,120.932Z" style="fill:#fbede5;fill-rule:nonzero;"/><path d="M48.143,82.927c-0.187,-0 -0.361,-0.116 -0.425,-0.303c-0.081,-0.234 0.043,-0.49 0.278,-0.571l81.068,-28.038c0.237,-0.081 0.491,0.044 0.572,0.278c0.081,0.235 -0.043,0.49 -0.278,0.572l-81.068,28.038c-0.049,0.016 -0.099,0.024 -0.147,0.024" style="fill:#6c73ff;fill-rule:nonzero;"/><path d="M50.487,89.704c-0.186,0 -0.36,-0.116 -0.425,-0.303c-0.081,-0.234 0.044,-0.49 0.278,-0.571l81.068,-28.038c0.237,-0.082 0.491,0.043 0.572,0.278c0.081,0.235 -0.043,0.49 -0.278,0.572l-81.068,28.038c-0.049,0.016 -0.098,0.024 -0.147,0.024" style="fill:#6c73ff;fill-rule:nonzero;"/><path d="M52.831,96.482c-0.187,-0 -0.361,-0.116 -0.425,-0.303c-0.081,-0.234 0.043,-0.49 0.278,-0.571l81.068,-28.038c0.237,-0.081 0.491,0.044 0.572,0.278c0.081,0.235 -0.043,0.49 -0.278,0.572l-81.068,28.038c-0.049,0.016 -0.099,0.024 -0.147,0.024" style="fill:#6c73ff;fill-rule:nonzero;"/><path d="M55.175,103.259c-0.186,-0 -0.36,-0.116 -0.425,-0.303c-0.081,-0.234 0.044,-0.49 0.278,-0.571l81.068,-28.038c0.237,-0.081 0.491,0.044 0.572,0.278c0.081,0.235 -0.043,0.49 -0.278,0.572l-81.068,28.038c-0.049,0.016 -0.098,0.024 -0.147,0.024" style="fill:#6c73ff;fill-rule:nonzero;"/><path d="M57.519,110.036c-0.186,0 -0.36,-0.116 -0.425,-0.302c-0.081,-0.235 0.044,-0.491 0.278,-0.572l81.068,-28.037c0.237,-0.082 0.492,0.043 0.572,0.277c0.082,0.235 -0.043,0.49 -0.278,0.572l-81.068,28.038c-0.049,0.016 -0.098,0.024 -0.147,0.024" style="fill:#6c73ff;fill-rule:nonzero;"/><path d="M59.863,116.814c-0.186,-0 -0.36,-0.116 -0.425,-0.303c-0.081,-0.234 0.044,-0.49 0.278,-0.571l81.068,-28.037c0.237,-0.082 0.491,0.044 0.572,0.277c0.081,0.235 -0.043,0.49 -0.278,0.572l-81.068,28.038c-0.049,0.016 -0.098,0.024 -0.147,0.024" style="fill:#6c73ff;fill-rule:nonzero;"/><path d="M62.207,123.591c-0.186,0 -0.36,-0.116 -0.425,-0.303c-0.081,-0.234 0.044,-0.49 0.278,-0.571l81.068,-28.038c0.237,-0.081 0.491,0.044 0.572,0.278c0.081,0.235 -0.043,0.49 -0.278,0.572l-81.068,28.038c-0.049,0.016 -0.098,0.024 -0.147,0.024" style="fill:#6c73ff;fill-rule:nonzero;"/><path d="M64.551,130.368c-0.187,0 -0.36,-0.116 -0.425,-0.302c-0.081,-0.234 0.044,-0.491 0.278,-0.572l81.068,-28.037c0.237,-0.082 0.491,0.043 0.572,0.277c0.081,0.235 -0.043,0.49 -0.278,0.572l-81.068,28.038c-0.049,0.016 -0.099,0.024 -0.147,0.024" style="fill:#6c73ff;fill-rule:nonzero;"/><path d="M66.895,137.147c-0.187,-0 -0.36,-0.117 -0.425,-0.303c-0.081,-0.234 0.044,-0.49 0.278,-0.572l81.068,-28.037c0.237,-0.081 0.491,0.043 0.572,0.277c0.081,0.235 -0.043,0.491 -0.278,0.573l-81.068,28.037c-0.049,0.017 -0.098,0.025 -0.147,0.025" style="fill:#6c73ff;fill-rule:nonzero;"/><path d="M69.239,143.923c-0.187,-0 -0.36,-0.116 -0.425,-0.302c-0.081,-0.235 0.044,-0.491 0.278,-0.572l81.068,-28.037c0.237,-0.081 0.491,0.043 0.572,0.277c0.081,0.236 -0.043,0.491 -0.278,0.572l-81.068,28.038c-0.049,0.016 -0.099,0.024 -0.147,0.024" style="fill:#6c73ff;fill-rule:nonzero;"/><path d="M71.302,21.674c1.289,-0.485 2.729,0.17 3.212,1.459c0.486,1.293 -0.173,2.729 -1.462,3.212c-1.289,0.482 -2.729,-0.169 -3.212,-1.458c-0.482,-1.297 0.176,-2.734 1.462,-3.213m27.194,3.303l-0.003,-0l-9.258,-1.837l-0.004,-0.003c-0.115,-0.213 -5.113,-9.061 -19.47,-3.555c-14.537,5.574 -10.238,14.685 -10.238,14.685l-5.427,7.343l-0.033,0.045c-1.718,2.324 0.645,5.456 3.351,4.443l41.534,-15.558c2.737,-1.024 2.414,-4.994 -0.452,-5.563" style="fill:#ffc15c;fill-rule:nonzero;"/><path d="M59.524,34.792c-0.212,0 -0.411,-0.13 -0.49,-0.341c-0.102,-0.27 0.036,-0.572 0.306,-0.674l29.713,-11.13c0.27,-0.102 0.572,0.036 0.674,0.307c0.101,0.271 -0.036,0.572 -0.307,0.674l-29.712,11.13c-0.061,0.023 -0.122,0.034 -0.184,0.034" style="fill:#472444;fill-rule:nonzero;"/><path d="M176.225,62.637c0.173,1.742 -5.669,1.789 -6.697,3.044c-1.028,1.255 0.076,6.992 -1.666,7.165c-1.742,0.174 -1.789,-5.669 -3.044,-6.696c-1.255,-1.029 -6.992,0.075 -7.165,-1.666c-0.174,-1.743 5.669,-1.789 6.697,-3.044c1.028,-1.256 -0.076,-6.992 1.666,-7.166c1.742,-0.173 1.789,5.669 3.044,6.697c1.255,1.028 6.992,-0.076 7.165,1.666" style="fill:#fbede5;fill-rule:nonzero;"/><path d="M47.397,23.643c0.173,1.741 -5.669,1.789 -6.697,3.044c-1.028,1.255 0.076,6.992 -1.666,7.165c-1.742,0.173 -1.789,-5.669 -3.044,-6.697c-1.255,-1.029 -6.992,0.076 -7.165,-1.666c-0.174,-1.742 5.669,-1.789 6.697,-3.044c1.028,-1.255 -0.076,-6.992 1.666,-7.165c1.742,-0.173 1.789,5.669 3.043,6.697c1.256,1.027 6.993,-0.076 7.166,1.666" style="fill:#fbede5;fill-rule:nonzero;"/><path d="M26.179,112.653c0.173,1.742 -5.669,1.789 -6.697,3.044c-1.028,1.255 0.076,6.992 -1.666,7.165c-1.742,0.173 -1.789,-5.669 -3.044,-6.697c-1.255,-1.029 -6.992,0.076 -7.165,-1.666c-0.174,-1.742 5.669,-1.789 6.697,-3.044c1.028,-1.255 -0.076,-6.992 1.666,-7.165c1.742,-0.173 1.789,5.669 3.044,6.697c1.255,1.027 6.992,-0.076 7.165,1.666" style="fill:#fbede5;fill-rule:nonzero;"/></svg>