<?xml version="1.0" encoding="UTF-8" standalone="no"?><!DOCTYPE svg PUBLIC "-//W3C//DTD SVG 1.1//EN" "http://www.w3.org/Graphics/SVG/1.1/DTD/svg11.dtd"><svg width="100%" height="100%" viewBox="0 0 179 183" version="1.1" xmlns="http://www.w3.org/2000/svg" xmlns:xlink="http://www.w3.org/1999/xlink" xml:space="preserve" xmlns:serif="http://www.serif.com/" style="fill-rule:evenodd;clip-rule:evenodd;stroke-linejoin:round;stroke-miterlimit:2;"><path d="M52.43,70.666l24.584,15.021l9.395,-7.848l3.87,-15.231l-21.394,-16.591l-19.556,1.326l-2.881,12.072l5.982,11.251Z" style="fill:#ff9682;fill-rule:nonzero;"/><g opacity="0.5"><path d="M52.43,70.666l24.584,15.021l9.395,-7.848l3.87,-15.231l-21.394,-16.591l-19.556,1.326l-2.881,12.072l5.982,11.251Z" style="fill:#472444;fill-rule:nonzero;"/></g><path d="M172.904,131.666c-7.659,15.625 -19.668,28.621 -34.137,37.734c-10.576,-3.143 -21.048,-6.312 -27.328,-8.368c-15.571,-5.085 -50.187,-18.729 -54.242,-20.331c-0.255,-0.101 -0.388,-0.155 -0.388,-0.155c-1.319,-5.142 3.633,-5.844 3.633,-5.844l-17.295,-5.193c-0.188,-7.447 3.608,-7.638 5.552,-7.249c0.245,0.047 0.457,0.105 0.63,0.155l-0.439,-0.155l-4.753,-1.678c1.995,-9.96 9.456,-7.173 9.456,-7.173c0.05,-0.137 0.108,-0.266 0.165,-0.396c3.847,-8.758 18.474,-2.924 28.222,1.595l0.003,0.004c2.002,0.929 3.796,1.8 5.247,2.477l0.003,0c0.249,0.119 0.486,0.227 0.71,0.328c0.144,0.068 0.284,0.129 0.418,0.191c0.284,0.126 0.55,0.241 0.792,0.342c0.288,0.122 0.543,0.223 0.77,0.302c0.18,0.065 0.356,0.122 0.537,0.18c0.345,0.116 0.694,0.216 1.04,0.31c0.385,0.101 0.771,0.195 1.156,0.27c4.768,0.99 9.723,0.31 16.785,-0.504c6.967,-0.803 11.681,-2.312 13.1,-2.805c0.291,-0.104 0.443,-0.162 0.443,-0.162c0,0 -2.125,-4.721 -5.535,-8.941c-3.406,-4.221 -7.342,-3.727 -11.019,-11.412c-1.084,-2.272 -1.293,-4.281 -1.051,-5.985c0.003,-0.007 0.003,-0.017 0.003,-0.025c0.119,-0.803 0.339,-1.534 0.612,-2.197c1.109,-2.675 3.133,-4.166 3.133,-4.166c0,0 0.245,0.18 0.702,0.518c1.581,1.164 5.711,4.192 11.009,7.973c0.378,0.267 0.759,0.544 1.152,0.825c7.717,5.488 17.565,12.333 25.632,17.386c15.819,9.909 19.074,20.388 19.074,20.388l6.208,1.761Z" style="fill:#ff9682;fill-rule:nonzero;"/><path d="M97.37,134.875c-3.5,-1.005 -25.113,-7.224 -31.451,-9.662c-7.202,-2.772 -10.896,-3.762 -17.292,-3.795c-0.327,-0 -0.641,0.022 -0.943,0.058c-0.043,-0.116 -0.137,-0.213 -0.259,-0.252l-2.827,-0.933c0.137,-0.979 0.734,-3.936 2.939,-5.574c1.515,-1.131 3.524,-1.43 5.966,-0.897c6.745,1.476 8.549,2.308 11.826,3.817c0.958,0.439 2.045,0.944 3.41,1.53c2.38,1.023 7.472,2.557 12.798,4.048c1.249,0.349 2.513,0.699 3.755,1.034c0.285,0.075 0.569,0.154 0.847,0.233c2.65,0.713 5.178,1.376 7.27,1.92c0.357,0.09 0.699,0.18 1.026,0.263c1.239,0.32 2.272,0.583 3.025,0.774c0.721,0.184 1.174,0.299 1.297,0.328c0.014,0.003 0.029,0.007 0.043,0.007c-0.558,2.308 -1.074,4.692 -1.43,7.101m-0.31,9.625c-2.736,-0.734 -14.637,-3.982 -19.74,-6.104c-1.073,-0.45 -2.11,-0.91 -3.115,-1.357c-4.569,-2.041 -8.52,-3.803 -13.356,-3.057c-0.31,0.047 -0.601,0.108 -0.878,0.18l-16.432,-4.976c-0.068,-0.879 -0.144,-3.731 1.397,-5.478c0.857,-0.968 2.096,-1.455 3.688,-1.447c0.025,-0.004 0.05,-0.004 0.076,-0l0.191,-0c6.103,0.057 9.733,1.044 16.726,3.738c6.445,2.484 28.53,8.829 31.638,9.718c-0.382,2.91 -0.515,5.856 -0.195,8.783m3.206,-20.856c-0.224,-0.058 -0.455,0.079 -0.512,0.306c-0.252,0.986 -0.508,1.994 -0.76,3.01l-0.032,-0.007c-0.015,-0.004 -0.13,-0.033 -0.328,-0.083c-0.673,-0.169 -2.33,-0.591 -4.552,-1.163l-0.003,-0c-0.332,-0.086 -0.67,-0.177 -1.023,-0.267l-0.003,-0c-1.931,-0.504 -4.192,-1.102 -6.554,-1.739c-0.281,-0.079 -0.566,-0.155 -0.846,-0.23c-1.117,-0.303 -2.247,-0.613 -3.374,-0.926c-5.495,-1.534 -10.814,-3.122 -13.205,-4.151c-1.358,-0.584 -2.438,-1.081 -3.392,-1.52c-3.317,-1.527 -5.153,-2.374 -11.923,-3.861c-0.025,-0.007 -0.051,-0.011 -0.076,-0.014c-2.693,-0.591 -4.933,-0.241 -6.654,1.048c-2.96,2.203 -3.295,6.33 -3.31,6.507c-0.017,0.191 0.105,0.371 0.288,0.432l2.384,0.781c-0.821,0.288 -1.523,0.746 -2.088,1.387c-2.085,2.366 -1.596,6.247 -1.574,6.413c0.018,0.162 0.133,0.295 0.292,0.342l0.003,-0l15.639,4.739c-0.781,0.396 -1.39,0.94 -1.814,1.628c-1.207,1.944 -0.472,4.299 -0.443,4.4c0.043,0.133 0.151,0.231 0.277,0.27c0.083,0.025 0.169,0.029 0.252,-0c0.129,-0.039 0.223,-0.133 0.263,-0.245c0.036,-0.086 0.043,-0.187 0.014,-0.281c-0.01,-0.021 -0.644,-2.095 0.357,-3.705c0.626,-1.012 1.771,-1.649 3.406,-1.902c4.595,-0.709 8.437,1.009 12.884,2.993c1.009,0.45 2.053,0.918 3.137,1.368c5.398,2.244 18.271,5.722 20.176,6.23c0.137,0.958 0.321,1.912 0.562,2.863c0.039,0.148 0.148,0.255 0.281,0.299c0.072,0.021 0.151,0.025 0.234,0.003c0.223,-0.053 0.36,-0.284 0.302,-0.511c-1.051,-4.101 -0.99,-8.332 -0.425,-12.484c0.004,-0.015 0.011,-0.029 0.015,-0.04c0.018,-0.057 0.021,-0.116 0.014,-0.173c0.54,-3.857 1.506,-7.645 2.413,-11.203c0.061,-0.226 -0.083,-0.45 -0.302,-0.514" style="fill:#472444;fill-rule:nonzero;"/><path d="M128.294,136.187c-0.054,0.003 -0.104,-0.003 -0.155,-0.02c-0.161,-0.05 -0.281,-0.193 -0.294,-0.368c-0.006,-0.066 -0.491,-6.471 -1.482,-10.51c-0.54,-2.199 -2.019,-5.921 -3.824,-9.586c-1.684,-3.421 -3.65,-6.789 -5.408,-8.828c-1.348,-1.567 -2.897,-2.725 -4.394,-3.85c-2.699,-2.022 -5.492,-4.111 -6.948,-8.532c-0.634,-1.931 -0.677,-3.718 -0.412,-5.29c0.003,-0.008 0.006,-0.016 0.005,-0.025c0.139,-0.789 0.354,-1.524 0.612,-2.197c1.051,-2.747 2.817,-4.44 2.847,-4.469c0.034,-0.034 0.074,-0.057 0.115,-0.076c0.055,-0.159 0.207,-0.276 0.387,-0.279c0.232,-0.007 0.423,0.18 0.427,0.413c0.005,0.255 0.023,0.508 0.058,0.763c0.333,2.524 2.066,4.973 4.578,6.389c2.1,1.181 4.418,1.557 6.43,1.584c0.378,0.268 0.762,0.545 1.154,0.823c-2.034,0.099 -3.934,-0.126 -5.632,-0.658c-0.841,-0.263 -1.632,-0.602 -2.365,-1.014c-2.702,-1.522 -4.574,-4.156 -4.979,-6.9c-1.132,1.301 -4.154,5.422 -2.425,10.672c1.374,4.168 3.937,6.089 6.652,8.125c1.534,1.147 3.121,2.336 4.527,3.97c3.837,4.454 8.355,14.454 9.412,18.761c1.01,4.111 1.5,10.584 1.503,10.65c0.018,0.232 -0.157,0.433 -0.389,0.452" style="fill:#472444;fill-rule:nonzero;"/><path d="M60.917,47.81l6.99,1.588l4.526,1.026l0.652,0.144c0,0 4.123,6.968 7.663,9.759c0,0 -1.581,10.421 1.047,16.082c-0.183,-0.234 -3.23,-4.037 -10.946,-9.305c-7.966,-5.438 -13.385,-13.651 -13.385,-13.651l3.453,-5.643Zm37.926,6.414c-0.497,-3.098 -6.262,-6.169 -13.13,-13.782c-6.863,-7.615 -12.038,-16.593 -15.761,-18.807c-3.716,-2.219 -20.378,2.654 -41.89,2.221c-0.374,-0.007 -0.749,-0.014 -1.124,-0.021c-9.967,9.442 -17.543,21.018 -22.466,33.622c-1.084,2.773 -2.038,5.596 -2.859,8.455c13.442,2.265 27.717,4.584 33.474,5.967c11.538,2.773 24.562,10.846 30.018,14.238c1.239,0.767 2.852,1.804 4.609,2.949c0.199,0.13 0.562,-0.77 0.76,-0.637c0.176,0.115 0.187,1.257 0.364,1.372c3.025,1.981 6.316,4.17 8.772,5.812c0.018,0.014 0.032,0.029 0.039,0.051c0.126,0.209 -0.162,0.828 -0.342,1.332c-0.122,0.328 -0.194,0.608 -0.076,0.688c0.069,0.046 0.249,-0.019 0.476,-0.134c0.529,-0.27 1.311,-0.802 1.556,-0.806l0.003,0c0.022,0 0.04,0.004 0.051,0.01c0.328,0.22 0.619,0.418 0.878,0.591c0.202,0.137 0.645,-0.23 0.803,-0.126c0.429,0.288 0.407,0.936 0.407,0.936c2.654,-0.432 4.509,-5.563 4.509,-5.563c0.065,0.068 -0.144,1.944 -0.148,2.463c0,0.075 0.004,0.122 0.014,0.133c3.011,2.805 6.968,2.312 6.968,2.312c0,0 -0.018,-0.346 -0.046,-0.965l0.003,-0.004c-0.011,-0.277 -0.821,-1.555 -0.835,-1.93c-0.008,-0.273 0.763,0.364 0.763,0.054l0,-0.007c-0.007,-0.277 -0.018,-0.569 -0.025,-0.879c-0.007,-0.234 -0.011,-0.475 -0.018,-0.727c-0.007,-0.274 -0.011,-0.558 -0.014,-0.85c-0.008,-0.237 -0.012,-0.486 -0.015,-0.735c-0.043,-3.345 0,-7.547 0.338,-11.163l0,-0.01c0,-0.249 -1.127,0.255 -1.098,0c0.026,-0.227 1.224,-1.232 1.257,-1.452c0.029,-0.255 0.061,-0.507 0.097,-0.752c1.07,-7.44 4.188,-20.756 3.688,-23.856" style="fill:#ff9682;fill-rule:nonzero;"/><g opacity="0.5"><path d="M60.917,47.81l6.99,1.588l4.526,1.026l0.652,0.144c0,0 4.123,6.968 7.663,9.759c0,0 -1.581,10.421 1.047,16.082c-0.183,-0.234 -3.23,-4.037 -10.946,-9.305c-7.966,-5.438 -13.385,-13.651 -13.385,-13.651l3.453,-5.643Zm37.926,6.414c-0.497,-3.098 -6.262,-6.169 -13.13,-13.782c-6.863,-7.615 -12.038,-16.593 -15.761,-18.807c-3.716,-2.219 -20.378,2.654 -41.89,2.221c-0.374,-0.007 -0.749,-0.014 -1.124,-0.021c-9.967,9.442 -17.543,21.018 -22.466,33.622c-1.084,2.773 -2.038,5.596 -2.859,8.455c13.442,2.265 27.717,4.584 33.474,5.967c11.538,2.773 24.562,10.846 30.018,14.238c1.239,0.767 2.852,1.804 4.609,2.949c0.199,0.13 0.562,-0.77 0.76,-0.637c0.176,0.115 0.187,1.257 0.364,1.372c3.025,1.981 6.316,4.17 8.772,5.812c0.018,0.014 0.032,0.029 0.039,0.051c0.126,0.209 -0.162,0.828 -0.342,1.332c-0.122,0.328 -0.194,0.608 -0.076,0.688c0.069,0.046 0.249,-0.019 0.476,-0.134c0.529,-0.27 1.311,-0.802 1.556,-0.806l0.003,0c0.022,0 0.04,0.004 0.051,0.01c0.328,0.22 0.619,0.418 0.878,0.591c0.202,0.137 0.645,-0.23 0.803,-0.126c0.429,0.288 0.407,0.936 0.407,0.936c2.654,-0.432 4.509,-5.563 4.509,-5.563c0.065,0.068 -0.144,1.944 -0.148,2.463c0,0.075 0.004,0.122 0.014,0.133c3.011,2.805 6.968,2.312 6.968,2.312c0,0 -0.018,-0.346 -0.046,-0.965l0.003,-0.004c-0.011,-0.277 -0.821,-1.555 -0.835,-1.93c-0.008,-0.273 0.763,0.364 0.763,0.054l0,-0.007c-0.007,-0.277 -0.018,-0.569 -0.025,-0.879c-0.007,-0.234 -0.011,-0.475 -0.018,-0.727c-0.007,-0.274 -0.011,-0.558 -0.014,-0.85c-0.008,-0.237 -0.012,-0.486 -0.015,-0.735c-0.043,-3.345 0,-7.547 0.338,-11.163l0,-0.01c0,-0.249 -1.127,0.255 -1.098,0c0.026,-0.227 1.224,-1.232 1.257,-1.452c0.029,-0.255 0.061,-0.507 0.097,-0.752c1.07,-7.44 4.188,-20.756 3.688,-23.856" style="fill:#472444;fill-rule:nonzero;"/></g><path d="M62.549,58.988c-1.57,-1.635 -2.884,-3.226 -3.972,-4.695l10.364,3.644c0.266,1.134 1.289,4.976 3.795,9.553c-0.194,-0.148 -0.392,-0.295 -0.59,-0.443c-3.227,-2.402 -6.557,-4.883 -9.597,-8.059m10.126,-7.302c0.857,0.666 4.339,4.85 7.436,8.782c-0.299,1.401 -1.509,7.577 -0.522,12.625c-1.361,-1.314 -2.831,-2.527 -4.368,-3.716c-3.551,-5.542 -4.89,-10.673 -5.146,-11.786c0.965,-1.148 1.905,-2.358 2.787,-3.579c0.195,-0.263 0.133,-0.634 -0.129,-0.821c-0.263,-0.191 -0.634,-0.134 -0.821,0.133c-0.858,1.181 -1.765,2.341 -2.701,3.46l-10.551,-3.712c-0.144,-0.054 -0.292,-0.043 -0.425,0.014c0.176,-0.468 0.464,-0.922 0.764,-1.39l0.043,-0.064c0.662,-1.045 1.293,-2.111 1.898,-3.195c8.329,2.759 10.863,3.31 11.735,3.249m16.942,7.248c-0.035,-0.324 -0.331,-0.554 -0.655,-0.518l-3.543,0.421l-0.004,-0l-4.652,0.551c-2.233,-2.83 -3.824,-4.768 -4.969,-6.086c-1.146,-1.314 -1.837,-2.023 -2.269,-2.398c0.101,-0.349 0.202,-0.699 0.306,-1.051c0.432,-1.466 0.893,-2.939 1.372,-4.386c0.104,-0.31 -0.061,-0.645 -0.371,-0.746l-0.014,-0.004c-0.303,-0.097 -0.631,0.069 -0.731,0.375c-0.44,1.314 -0.857,2.647 -1.257,3.983c-0.134,0.45 -0.267,0.9 -0.396,1.35c-0.011,0.036 -0.022,0.08 -0.032,0.115c-0.577,-0.043 -2.302,-0.496 -4.495,-1.141c-1.922,-0.569 -4.202,-1.289 -6.399,-2.013c0.159,-0.299 0.313,-0.598 0.465,-0.9c0.655,-1.286 1.267,-2.589 1.829,-3.915c0.126,-0.298 -0.014,-0.644 -0.313,-0.774c-0.299,-0.126 -0.645,0.018 -0.771,0.317c-0.644,1.513 -1.35,3.003 -2.117,4.465c-0.792,1.509 -1.646,2.986 -2.557,4.419l-0.039,0.065c-0.094,0.147 -0.187,0.295 -0.278,0.443c0.105,-1.578 0.213,-3.166 0.321,-4.754c0.122,-1.674 0.245,-3.352 0.375,-5.023c0.021,-0.324 -0.22,-0.601 -0.544,-0.63c-0.325,-0.029 -0.609,0.216 -0.634,0.543c-0.13,1.725 -0.259,3.457 -0.382,5.189c-0.104,1.502 -0.209,3.004 -0.306,4.498c-1.314,-2.103 -2.038,-3.68 -2.315,-4.318c-0.083,-0.194 -0.123,-0.302 -0.127,-0.309c-0.118,-0.306 -0.457,-0.458 -0.763,-0.342c-0.295,0.111 -0.45,0.439 -0.345,0.734c-0,0.007 0.003,0.015 0.007,0.022c0.057,0.158 1.022,2.658 3.417,6.201c-0.007,0.259 0.155,0.489 0.392,0.568c1.25,1.794 2.852,3.814 4.872,5.92c3.112,3.242 6.486,5.755 9.745,8.185c0.99,0.739 1.959,1.466 2.902,2.194c0.029,0.047 0.058,0.086 0.083,0.133c0.08,0.119 0.194,0.198 0.317,0.237c0.032,0.012 0.068,0.015 0.104,0.022c2.143,1.678 4.141,3.403 5.863,5.398c0.958,1.109 2.013,2.532 3.003,4.119c2.495,3.998 4.581,9.057 3.676,12.871c-0.482,2.03 -1.785,3.546 -3.881,4.504c1.3,-2.157 2.049,-4.652 2.106,-7.166c0.025,-1.22 -0.115,-2.178 -0.443,-3.021c-0.396,-1.001 -1.069,-1.826 -1.544,-2.352c-0.919,-1.029 -1.88,-1.821 -2.874,-2.365c-0.684,-0.382 -1.39,-0.645 -2.107,-0.789c-1.966,-0.396 -4.083,0.141 -5.747,1.398c-0.45,0.334 -0.864,0.727 -1.235,1.163c-1.087,1.289 -1.764,2.963 -1.948,4.731c0.367,0.241 0.746,0.486 1.124,0.735c0.057,-1.761 0.662,-3.446 1.728,-4.703c0.414,-0.49 0.904,-0.911 1.437,-1.25l0.003,-0c1.329,-0.853 2.938,-1.213 4.404,-0.918c0.458,0.09 0.911,0.242 1.362,0.45c1.022,0.479 2.016,1.257 2.974,2.33c0.659,0.738 1.076,1.372 1.325,2.002c0.27,0.692 0.385,1.505 0.364,2.561c-0.058,2.502 -0.857,4.983 -2.24,7.072c0.76,0.508 1.21,0.81 1.21,0.81c0.255,0.141 1.181,-0.317 1.43,-0.432c0.449,-0.209 0.871,-0.479 1.256,-0.792c0.648,-0.526 1.228,-1.16 1.675,-1.877c0.349,-0.558 0.615,-1.17 0.767,-1.818c0.147,-0.623 0.226,-1.275 0.241,-1.952c0.003,-0.215 0.003,-0.432 -0.004,-0.651c-0.122,-3.587 -1.854,-7.728 -4.13,-11.318c-0.947,-1.491 -1.984,-2.888 -3.039,-4.109c-0.112,-0.13 -0.227,-0.248 -0.342,-0.374c-0.004,-0.051 -0.007,-0.101 -0.025,-0.148c-1.858,-5.239 -0.08,-13.478 0.079,-14.174l5.43,-0.644l0.004,-0l2.355,-0.281c0.324,-0.036 0.55,-0.331 0.514,-0.652" style="fill:#472444;fill-rule:nonzero;"/><path d="M94.704,96.532c-3.378,-3.45 -4.654,-8.785 -3.09,-13.387c0.708,-2.087 1.948,-3.617 3.443,-4.314c-0.062,0.474 -0.112,0.961 -0.158,1.461l-0.001,0.004c-1.032,0.772 -1.766,2.053 -2.167,3.228c-1.25,3.675 -0.441,8.016 1.904,11.126c0.025,0.761 0.05,1.403 0.069,1.882" style="fill:#472444;fill-rule:nonzero;"/><path d="M100.508,111.189c-0.085,0.01 -0.175,-0.005 -0.257,-0.049c-0.212,-0.114 -0.291,-0.377 -0.177,-0.589c0.789,-1.47 1.302,-3.055 1.522,-4.709c0.032,-0.238 0.25,-0.405 0.488,-0.374c0.238,0.032 0.406,0.251 0.374,0.489c-0.234,1.758 -0.778,3.442 -1.618,5.005c-0.07,0.13 -0.196,0.21 -0.332,0.227" style="fill:#fbede5;fill-rule:nonzero;"/><path d="M102.185,104.966c-0.03,0.003 -0.061,0.004 -0.092,0.001c-0.239,-0.022 -0.415,-0.233 -0.393,-0.473c0.056,-0.617 0.055,-1.243 -0.004,-1.86c-0.023,-0.239 0.141,-0.459 0.392,-0.474c0.239,-0.023 0.451,0.152 0.474,0.391c0.064,0.671 0.065,1.352 0.004,2.022c-0.019,0.208 -0.181,0.369 -0.381,0.393" style="fill:#fbede5;fill-rule:nonzero;"/><path d="M113.848,15.571c0.811,-0.317 2.813,-0.94 3.893,0.137c0.983,0.983 0.562,2.747 0.335,3.46c-1.246,3.922 -4.93,7.177 -9.384,8.297c-1.783,0.446 -3.698,0.583 -5.672,0.41c1.912,-5.39 5.459,-10.198 10.828,-12.304m54.245,81.472c0.101,-3.763 0.875,-7.541 1.628,-11.196c0.489,-2.369 0.994,-4.821 1.314,-7.266c0.709,-5.412 0.598,-12.971 -3.975,-18.218c-3.363,-3.86 -8.97,-6.006 -15.002,-5.75c-4.656,0.201 -9.453,1.638 -15.552,4.663c-0.57,0.284 -1.142,0.572 -1.711,0.86c-3.035,1.541 -6.172,3.137 -9.517,3.699c-6.363,1.073 -13.407,-1.815 -17.944,-7.353c-4.022,-4.905 -6.161,-11.707 -6.025,-19.158c0.047,-2.729 0.494,-5.621 1.358,-8.397c2.186,0.216 4.314,0.082 6.287,-0.414c4.811,-1.21 8.794,-4.75 10.152,-9.017c0.604,-1.905 0.385,-3.565 -0.602,-4.551c-1.076,-1.078 -2.92,-1.214 -5.052,-0.379c-5.765,2.262 -9.539,7.433 -11.527,13.183c-2.041,-0.291 -4.123,-0.896 -6.168,-1.815c-6.439,-2.884 -11.602,-8.303 -14.174,-14.875c-1.375,-3.522 -1.98,-7.306 -1.821,-11.059c-0.364,0.04 -0.721,0.079 -1.081,0.119c-0.144,3.849 0.486,7.724 1.898,11.332c2.672,6.831 8.044,12.471 14.739,15.47c2.07,0.929 4.188,1.556 6.265,1.869c-0.86,2.823 -1.303,5.751 -1.354,8.516c-0.14,7.706 2.085,14.761 6.266,19.86c4.782,5.833 12.225,8.869 18.963,7.735c3.507,-0.591 6.719,-2.222 9.827,-3.799c0.565,-0.289 1.134,-0.577 1.699,-0.858c5.96,-2.952 10.623,-4.357 15.121,-4.551c5.704,-0.248 10.99,1.764 14.141,5.38c4.307,4.944 4.397,12.175 3.716,17.367c-0.317,2.405 -0.814,4.837 -1.3,7.188c-0.76,3.701 -1.548,7.529 -1.649,11.386c-0.206,7.897 3.212,17.346 11.3,20.803c0.104,-0.346 0.205,-0.692 0.299,-1.041c-7.53,-3.313 -10.713,-12.243 -10.519,-19.733" style="fill:#472444;fill-rule:nonzero;"/><path d="M35.844,127.518c-0.429,6.532 -3.853,12.431 -6.875,17.638c-1.915,3.298 -3.997,6.885 -5.339,10.702c-0.285,-0.285 -0.566,-0.569 -0.843,-0.858c1.372,-3.712 3.385,-7.183 5.246,-10.388c2.964,-5.103 6.32,-10.886 6.73,-17.162c0.382,-5.827 -2.74,-12.769 -8.627,-14.3c-0.839,-0.219 -1.775,-0.356 -2.683,-0.486c-2.567,-0.375 -5.221,-0.76 -6.579,-3.021c-0.501,-0.839 -0.753,-1.869 -0.763,-3.147c-0.044,-4.196 2.318,-7.768 4.602,-11.221c1.969,-2.985 4.007,-6.071 4.44,-9.503c0.378,-2.992 -0.54,-5.985 -2.654,-8.65c-2.701,-3.402 -7.069,-5.801 -11.401,-6.258c-3.796,-0.4 -7.555,0.277 -11.098,1.484c0.086,-0.411 0.176,-0.818 0.273,-1.225c3.493,-1.123 7.188,-1.725 10.937,-1.332c4.613,0.482 9.261,3.036 12.135,6.658c2.297,2.902 3.295,6.172 2.881,9.46c-0.465,3.68 -2.571,6.874 -4.613,9.96c-2.294,3.471 -4.462,6.752 -4.422,10.619c0.007,1.077 0.209,1.93 0.612,2.6c1.091,1.823 3.381,2.154 5.805,2.507c0.936,0.136 1.904,0.277 2.801,0.511c6.669,1.732 9.838,9.236 9.435,15.412" style="fill:#472444;fill-rule:nonzero;"/><path d="M129.444,174.568c-0.35,0.166 -0.699,0.335 -1.052,0.497c-1.854,-1.667 -4.418,-3.115 -7.68,-4.336c-6.349,-2.372 -15.766,-4.591 -24.574,-1.67c-6.089,2.016 -11.289,6.269 -15.876,10.021c-1.506,1.232 -3.032,2.478 -4.595,3.673c-0.49,-0.076 -0.979,-0.159 -1.469,-0.245c1.836,-1.368 3.622,-2.827 5.379,-4.263c4.66,-3.814 9.947,-8.131 16.22,-10.209c7.212,-2.391 15.955,-1.808 25.293,1.681c3.579,1.34 6.373,2.96 8.354,4.851" style="fill:#472444;fill-rule:nonzero;"/><path d="M159.813,79.464c0.173,1.742 -5.669,1.789 -6.697,3.044c-1.028,1.255 0.076,6.992 -1.666,7.165c-1.742,0.173 -1.789,-5.669 -3.044,-6.697c-1.255,-1.028 -6.992,0.076 -7.165,-1.666c-0.174,-1.742 5.669,-1.789 6.697,-3.044c1.028,-1.255 -0.076,-6.992 1.666,-7.165c1.742,-0.173 1.789,5.669 3.043,6.697c1.256,1.028 6.993,-0.076 7.166,1.666" style="fill:#fbede5;fill-rule:nonzero;"/><path d="M115.314,168.093c0.173,1.742 -5.669,1.789 -6.697,3.044c-1.028,1.255 0.076,6.992 -1.666,7.165c-1.742,0.173 -1.789,-5.669 -3.044,-6.697c-1.255,-1.028 -6.992,0.076 -7.165,-1.666c-0.173,-1.742 5.669,-1.789 6.697,-3.044c1.028,-1.255 -0.076,-6.992 1.666,-7.165c1.742,-0.173 1.789,5.669 3.044,6.697c1.255,1.028 6.992,-0.076 7.165,1.666" style="fill:#fbede5;fill-rule:nonzero;"/><path d="M45.44,97.668c0.173,1.742 -5.669,1.789 -6.697,3.044c-1.028,1.255 0.076,6.992 -1.666,7.165c-1.742,0.173 -1.789,-5.669 -3.044,-6.697c-1.255,-1.028 -6.992,0.076 -7.165,-1.666c-0.174,-1.742 5.669,-1.789 6.697,-3.044c1.028,-1.255 -0.076,-6.992 1.666,-7.165c1.742,-0.173 1.789,5.669 3.044,6.697c1.255,1.028 6.992,-0.076 7.165,1.666" style="fill:#fbede5;fill-rule:nonzero;"/><path d="M93.34,14.183c0.173,1.742 -5.668,1.789 -6.697,3.044c-1.028,1.255 0.076,6.992 -1.666,7.165c-1.742,0.173 -1.789,-5.669 -3.044,-6.697c-1.255,-1.028 -6.992,0.076 -7.165,-1.666c-0.173,-1.742 5.669,-1.789 6.697,-3.044c1.028,-1.255 -0.076,-6.992 1.666,-7.165c1.742,-0.173 1.789,5.669 3.044,6.697c1.255,1.028 6.992,-0.076 7.165,1.666" style="fill:#fbede5;fill-rule:nonzero;"/></svg>