<?xml version="1.0" encoding="UTF-8" standalone="no"?><!DOCTYPE svg PUBLIC "-//W3C//DTD SVG 1.1//EN" "http://www.w3.org/Graphics/SVG/1.1/DTD/svg11.dtd"><svg width="100%" height="100%" viewBox="0 0 181 182" version="1.1" xmlns="http://www.w3.org/2000/svg" xmlns:xlink="http://www.w3.org/1999/xlink" xml:space="preserve" xmlns:serif="http://www.serif.com/" style="fill-rule:evenodd;clip-rule:evenodd;stroke-linejoin:round;stroke-miterlimit:2;"><path d="M123.614,25.214c-1.948,-2.29 -2.985,-4.396 -3.165,-6.441c-0.184,-2.14 0.85,-4.851 3.133,-5.668c0.392,-0.141 0.806,-0.209 1.231,-0.209c0.811,-0 1.656,0.255 2.438,0.749c1.397,0.885 2.359,2.377 2.507,3.885c0.306,3.151 -2.093,5.97 -4.624,7.13c-0.483,0.223 -0.991,0.407 -1.52,0.554m52.182,65.005c-11.199,-5.534 -15.355,-19.074 -14.501,-30.035c0.111,-1.455 0.298,-2.939 0.482,-4.375c0.393,-3.105 0.803,-6.317 0.49,-9.507c-0.302,-3.065 -1.246,-5.514 -2.812,-7.277c-3.292,-3.72 -8.47,-3.908 -13.479,-4.091c-1.39,-0.051 -2.827,-0.105 -4.174,-0.235c-6.6,-0.644 -12.873,-3.758 -17.392,-8.598c0.403,-0.13 0.792,-0.285 1.174,-0.458c3.41,-1.563 5.567,-4.941 5.247,-8.217c-0.177,-1.833 -1.329,-3.634 -3,-4.692c-1.473,-0.933 -3.155,-1.167 -4.613,-0.645c-2.823,1.008 -4.069,4.174 -3.842,6.777c0.183,2.143 1.185,4.31 3.053,6.608c-1.922,0.32 -4.094,0.198 -6.492,-0.364c-4.671,-1.098 -10.302,-4.216 -12.11,-9.672c-1.7,-5.131 0.587,-10.5 4.162,-14.156c-0.41,-0.089 -0.82,-0.176 -1.234,-0.255c-3.551,3.9 -5.715,9.427 -3.954,14.749c1.948,5.88 7.936,9.222 12.891,10.385c2.798,0.659 5.326,0.742 7.544,0.26c4.721,5.268 11.415,8.667 18.462,9.352c1.379,0.132 2.834,0.187 4.239,0.241c4.781,0.173 9.722,0.352 12.707,3.723c1.412,1.595 2.269,3.838 2.546,6.669c0.303,3.072 -0.097,6.223 -0.486,9.269c-0.184,1.447 -0.371,2.945 -0.486,4.426c-0.878,11.325 3.45,25.325 15.099,31.087c1.57,0.778 3.255,1.35 5.009,1.717c0.007,-0.367 0.007,-0.73 -0,-1.097c-1.563,-0.35 -3.086,-0.872 -4.53,-1.589" style="fill:#472444;fill-rule:nonzero;"/><path d="M35.434,31.033c-0.148,0.147 -0.295,0.292 -0.447,0.433c-1.509,-1.127 -3.431,-3.058 -3.59,-5.651c-0.083,-1.419 0.684,-2.985 1.909,-3.903c0.414,-0.31 1.141,-0.734 2.02,-0.734c0.295,-0 0.608,0.046 0.929,0.162c1.801,0.651 2.564,2.87 2.265,4.641c-0.277,1.653 -1.257,3.259 -3.086,5.052m37.025,-30.874c0.083,9.964 -2.463,18.66 -7.375,24.922c-6.266,7.987 -19.096,13.003 -28.905,7.183c-0.086,-0.053 -0.18,-0.111 -0.281,-0.172c0.098,-0.097 0.199,-0.191 0.296,-0.288c1.994,-1.962 3.075,-3.755 3.392,-5.643c0.37,-2.207 -0.634,-4.994 -2.964,-5.837c-1.285,-0.465 -2.73,-0.201 -3.961,0.724c-1.53,1.141 -2.449,3.039 -2.341,4.833c0.141,2.294 1.516,4.533 3.839,6.319c-5.906,4.991 -14.173,6.918 -21.753,5.491c-0.213,0.321 -0.425,0.645 -0.638,0.969c1.83,0.378 3.698,0.561 5.571,0.561c6.424,-0 12.87,-2.177 17.727,-6.38c0.184,0.123 0.371,0.238 0.562,0.353c10.31,6.118 23.756,0.901 30.303,-7.443c5.087,-6.489 7.716,-15.477 7.605,-25.751c-0.36,0.054 -0.717,0.104 -1.077,0.159" style="fill:#472444;fill-rule:nonzero;"/><path d="M73.042,143.69c-2.813,6.64 -6.385,12.97 -10.616,18.811c-0.36,0.497 -0.723,0.994 -1.091,1.491c-2.607,3.536 -5.304,7.194 -6.053,11.444c-0.069,0.385 -0.112,0.774 -0.13,1.17c-0.353,-0.137 -0.705,-0.281 -1.055,-0.429c0.029,-0.313 0.069,-0.623 0.123,-0.928c0.792,-4.498 3.565,-8.261 6.244,-11.898c0.367,-0.497 0.731,-0.99 1.087,-1.484c4.184,-5.776 7.714,-12.031 10.497,-18.599c2.045,-4.832 4.617,-12.066 3.299,-19.057c-1.11,-5.862 -5.92,-12.243 -12.654,-12.523c-5.171,-0.224 -9.827,3.18 -13.309,6.161c-3.176,2.722 -6.191,5.693 -8.956,8.826l-0.223,0.252c-1.196,1.358 -2.434,2.762 -4.102,3.601c-1.721,0.86 -4.285,1.037 -5.862,-0.605c-1.628,-1.7 -1.257,-4.058 -0.901,-6.341c0.109,-0.706 0.213,-1.376 0.26,-2.024c0.414,-5.697 -4.789,-10.432 -9.91,-11.282c-5.02,-0.835 -10.623,1.084 -15.373,5.268c-1.425,1.26 -2.718,2.651 -3.914,4.12c-0.14,-0.404 -0.274,-0.807 -0.403,-1.214c1.109,-1.318 2.297,-2.568 3.604,-3.716c4.991,-4.397 10.922,-6.413 16.263,-5.523c5.588,0.928 11.267,6.142 10.813,12.426c-0.05,0.692 -0.165,1.415 -0.274,2.114c-0.331,2.114 -0.644,4.112 0.613,5.423c1.145,1.196 3.179,1.098 4.598,0.389c1.484,-0.746 2.651,-2.07 3.778,-3.35l0.223,-0.254c2.798,-3.169 5.848,-6.176 9.063,-8.931c3.634,-3.111 8.513,-6.648 14.055,-6.421c7.295,0.307 12.488,7.134 13.669,13.403c1.376,7.278 -1.26,14.717 -3.363,19.68" style="fill:#472444;fill-rule:nonzero;"/><path d="M148.483,131.432c2.645,1.473 4.346,3.673 4.544,5.887c0.125,1.393 -0.368,2.827 -1.387,4.033c-1.178,1.387 -2.903,2.294 -4.619,2.424c-3.141,0.248 -6.424,-1.61 -8.358,-4.71c-1.671,-2.683 -2.175,-6.078 -1.584,-9.384c3.867,-0.605 7.841,-0.231 11.404,1.75m24.872,-13.284c-6.561,-2.798 -12.374,-4.019 -17.779,-3.731c-6.695,0.357 -12.618,3.165 -16.248,7.713c-1.563,1.955 -2.621,4.249 -3.158,6.615c-4.256,0.799 -8.336,2.69 -11.599,4.894c-9.413,6.359 -16.082,16.396 -18.299,27.536c-1.315,6.609 -1.034,13.457 0.72,19.914c0.181,-0.039 0.364,-0.08 0.546,-0.121c0.169,-0.038 0.337,-0.077 0.505,-0.117c-1.721,-6.309 -1.999,-13.006 -0.713,-19.467c2.164,-10.86 8.668,-20.647 17.846,-26.848c3.05,-2.064 6.831,-3.839 10.778,-4.649c-0.526,3.439 0.047,6.949 1.793,9.751c2.143,3.436 5.823,5.478 9.352,5.214c2.002,-0.15 4.004,-1.198 5.365,-2.801c1.21,-1.43 1.79,-3.143 1.639,-4.829c-0.234,-2.61 -2.092,-5.066 -5.096,-6.734c-3.669,-2.041 -7.727,-2.481 -11.685,-1.93c0.526,-2.056 1.484,-4.044 2.852,-5.754c3.436,-4.308 9.071,-6.968 15.459,-7.31c5.232,-0.278 10.89,0.915 17.296,3.647c0.792,0.339 1.674,0.746 2.603,1.221c0.119,-0.342 0.238,-0.688 0.353,-1.034c-0.9,-0.457 -1.761,-0.853 -2.531,-1.18" style="fill:#472444;fill-rule:nonzero;"/><path d="M112.563,96.007l26.26,-55.937l27.904,55.937l-54.164,-0Zm-100.971,-14.619l26.127,-41.51l24.818,41.51l-50.945,-0Zm156.258,14.619l-28.73,-57.591l-101.666,-0l-27.048,42.972l-4.382,-0c0,-0 5.241,18.204 29.513,18.204c24.272,-0 32.822,-18.204 32.822,-18.204l-4.652,-0l-25.092,-41.968l99.404,-0l-26.565,56.587l-2.549,-0c0,-0 5.24,18.204 29.512,18.204c24.272,-0 32.823,-18.204 32.823,-18.204l-3.391,-0Z" style="fill:#472444;fill-rule:nonzero;"/><path d="M92.777,151.482l0,-107.527c3.011,-1.461 5.076,-4.44 5.076,-7.88c0,-3.442 -2.065,-6.42 -5.076,-7.881l0,-4.2c0,-2.171 -1.759,-3.93 -3.93,-3.93l-0.192,0c-2.17,0 -3.929,1.759 -3.929,3.93l0,4.039c-3.201,1.394 -5.426,4.47 -5.426,8.042c0,3.571 2.225,6.646 5.426,8.041l0,107.366l-47.258,0l0,12.008l102.916,0l0,-12.008l-47.607,0Z" style="fill:#ffc15c;fill-rule:nonzero;"/><path d="M88.576,29.738c-3.68,0 -6.674,2.843 -6.674,6.337c0,3.493 2.994,6.335 6.674,6.335c3.681,0 6.675,-2.842 6.675,-6.335c0,-3.494 -2.994,-6.337 -6.675,-6.337m0,13.676c-4.233,0 -7.678,-3.292 -7.678,-7.339c0,-4.048 3.445,-7.34 7.678,-7.34c4.234,-0 7.678,3.292 7.678,7.34c0,4.047 -3.444,7.339 -7.678,7.339" style="fill:#472444;fill-rule:nonzero;"/></svg>